<svg width="21" height="21" viewBox="0 0 21 21" fill="none" xmlns="http://www.w3.org/2000/svg">
<g clip-path="url(#clip0_3192_3529)">
<g clip-path="url(#clip1_3192_3529)">
<path d="M16.4958 16.4423C16.4958 16.7949 16.2099 17.0808 15.8572 17.0808H13.3031C12.9504 17.0808 12.6646 16.7949 12.6646 16.4423V5.26793C12.6646 4.91528 12.9504 4.62939 13.3031 4.62939H15.8572C16.2099 4.62939 16.4958 4.91528 16.4958 5.26793V16.4423Z" fill="#132391"/>
<path d="M11.7072 16.4423C11.7072 16.7949 11.4213 17.0808 11.0686 17.0808H8.51451C8.16186 17.0808 7.87598 16.7949 7.87598 16.4423V9.09911C7.87598 8.74645 8.16186 8.46057 8.51451 8.46057H11.0686C11.4213 8.46057 11.7072 8.74645 11.7072 9.09911V16.4423Z" fill="#132391"/>
<path d="M6.91812 16.4423C6.91812 16.7949 6.63224 17.0808 6.27959 17.0808H3.72545C3.3728 17.0808 3.08691 16.7949 3.08691 16.4423V11.9725C3.08691 11.6199 3.3728 11.334 3.72545 11.334H6.27959C6.63224 11.334 6.91812 11.6199 6.91812 11.9725V16.4423Z" fill="#132391"/>
</g>
</g>
<defs>
<clipPath id="clip0_3192_3529">
<rect width="20.4331" height="20.4331" fill="white"/>
</clipPath>
<clipPath id="clip1_3192_3529">
<rect width="20.4331" height="20.4331" fill="white" transform="translate(-0.425293)"/>
</clipPath>
</defs>
</svg>
