<svg width="21" height="21" viewBox="0 0 21 21" fill="none" xmlns="http://www.w3.org/2000/svg">
<g clip-path="url(#clip0_3273_4854)">
<g clip-path="url(#clip1_3273_4854)">
<path d="M13.3027 4.88525H15.8564C16.068 4.88525 16.2402 5.05647 16.2402 5.26807V16.4419C16.2402 16.6535 16.068 16.8257 15.8564 16.8257H13.3027C13.0911 16.8257 12.9199 16.6535 12.9199 16.4419V5.26807C12.9199 5.05647 13.0911 4.88525 13.3027 4.88525Z" stroke="#132391" stroke-width="0.510828"/>
<path d="M11.7057 16.4423C11.7057 16.7949 11.4198 17.0808 11.0672 17.0808H8.51305C8.16039 17.0808 7.87451 16.7949 7.87451 16.4423V9.09911C7.87451 8.74645 8.16039 8.46057 8.51305 8.46057H11.0672C11.4198 8.46057 11.7057 8.74645 11.7057 9.09911V16.4423Z" fill="#132391"/>
<path d="M6.91715 16.4423C6.91715 16.7949 6.63126 17.0808 6.27861 17.0808H3.72447C3.37182 17.0808 3.08594 16.7949 3.08594 16.4423V11.9725C3.08594 11.6199 3.37182 11.334 3.72447 11.334H6.27861C6.63126 11.334 6.91715 11.6199 6.91715 11.9725V16.4423Z" fill="#132391"/>
</g>
</g>
<defs>
<clipPath id="clip0_3273_4854">
<rect width="20.4331" height="20.4331" fill="white"/>
</clipPath>
<clipPath id="clip1_3273_4854">
<rect width="20.4331" height="20.4331" fill="white" transform="translate(-0.425781)"/>
</clipPath>
</defs>
</svg>
