<svg width="20" height="20" viewBox="0 0 20 20" fill="none" xmlns="http://www.w3.org/2000/svg">
<g clip-path="url(#clip0_5283_1671)">
<path d="M13.7344 3.5791H16.3418C16.5018 3.5791 16.6318 3.70916 16.6318 3.86914V16.2559C16.6318 16.4158 16.5018 16.5459 16.3418 16.5459H13.7344C13.5744 16.5459 13.4444 16.4158 13.4443 16.2559V3.86914C13.4444 3.70919 13.5744 3.57915 13.7344 3.5791Z" stroke="#132391" stroke-width="1.15897"/>
<path d="M8.30176 7.92529H10.9092C11.0692 7.92529 11.1992 8.05535 11.1992 8.21533V16.2554C11.1992 16.4154 11.0692 16.5454 10.9092 16.5454H8.30176C8.14178 16.5454 8.01172 16.4154 8.01172 16.2554V8.21533C8.01177 8.05538 8.14181 7.92534 8.30176 7.92529Z" stroke="#132391" stroke-width="1.15897"/>
<path d="M6.34615 16.2557C6.34615 16.7358 5.95699 17.1249 5.47692 17.1249H2.86923C2.38917 17.1249 2 16.7358 2 16.2557V11.4749C2 10.9949 2.38917 10.6057 2.86923 10.6057H5.47692C5.95699 10.6057 6.34615 10.9949 6.34615 11.4749V16.2557Z" fill="#132391"/>
</g>
<defs>
<clipPath id="clip0_5283_1671">
<rect width="20" height="20" fill="white"/>
</clipPath>
</defs>
</svg>
